<mxfile host="app.diagrams.net" modified="2020-05-25T23:26:02.183Z" agent="5.0 (Windows NT 10.0; Win64; x64) AppleWebKit/537.36 (KHTML, like Gecko) Chrome/81.0.4044.138 Safari/537.36" etag="lxkQfkP_vX6kBHDf1eY1" version="13.1.3" type="github">
  <diagram id="gZg7Vdjk8Yf_GTHH_Ipx" name="Page-1">
    <mxGraphModel dx="1422" dy="762" grid="1" gridSize="10" guides="1" tooltips="1" connect="1" arrows="1" fold="1" page="1" pageScale="1" pageWidth="850" pageHeight="1100" math="0" shadow="0">
      <root>
        <mxCell id="0" />
        <mxCell id="1" parent="0" />
        <mxCell id="cRAT8RDkjrram8gvv_J--6" style="rounded=0;orthogonalLoop=1;jettySize=auto;html=1;entryX=0.5;entryY=0;entryDx=0;entryDy=0;" edge="1" parent="1" source="cRAT8RDkjrram8gvv_J--1" target="cRAT8RDkjrram8gvv_J--7">
          <mxGeometry relative="1" as="geometry">
            <mxPoint x="460" y="320" as="targetPoint" />
          </mxGeometry>
        </mxCell>
        <mxCell id="cRAT8RDkjrram8gvv_J--8" style="rounded=0;orthogonalLoop=1;jettySize=auto;html=1;entryX=0;entryY=0.5;entryDx=0;entryDy=0;" edge="1" parent="1" source="cRAT8RDkjrram8gvv_J--1" target="cRAT8RDkjrram8gvv_J--9">
          <mxGeometry relative="1" as="geometry">
            <mxPoint x="450" y="230" as="targetPoint" />
          </mxGeometry>
        </mxCell>
        <mxCell id="cRAT8RDkjrram8gvv_J--11" value="what is?" style="edgeLabel;html=1;align=center;verticalAlign=middle;resizable=0;points=[];" vertex="1" connectable="0" parent="cRAT8RDkjrram8gvv_J--8">
          <mxGeometry x="0.2727" y="-1" relative="1" as="geometry">
            <mxPoint as="offset" />
          </mxGeometry>
        </mxCell>
        <mxCell id="cRAT8RDkjrram8gvv_J--12" style="rounded=0;orthogonalLoop=1;jettySize=auto;html=1;" edge="1" parent="1" source="cRAT8RDkjrram8gvv_J--1" target="cRAT8RDkjrram8gvv_J--13">
          <mxGeometry relative="1" as="geometry">
            <mxPoint x="430" y="110" as="targetPoint" />
          </mxGeometry>
        </mxCell>
        <mxCell id="cRAT8RDkjrram8gvv_J--14" value="supports" style="edgeLabel;html=1;align=center;verticalAlign=middle;resizable=0;points=[];" vertex="1" connectable="0" parent="cRAT8RDkjrram8gvv_J--12">
          <mxGeometry x="-0.4126" y="-2" relative="1" as="geometry">
            <mxPoint as="offset" />
          </mxGeometry>
        </mxCell>
        <mxCell id="cRAT8RDkjrram8gvv_J--15" style="edgeStyle=none;rounded=0;orthogonalLoop=1;jettySize=auto;html=1;" edge="1" parent="1" source="cRAT8RDkjrram8gvv_J--1" target="cRAT8RDkjrram8gvv_J--16">
          <mxGeometry relative="1" as="geometry">
            <mxPoint x="220" y="130" as="targetPoint" />
          </mxGeometry>
        </mxCell>
        <mxCell id="cRAT8RDkjrram8gvv_J--17" value="dont support" style="edgeLabel;html=1;align=center;verticalAlign=middle;resizable=0;points=[];" vertex="1" connectable="0" parent="cRAT8RDkjrram8gvv_J--15">
          <mxGeometry x="-0.4328" y="-2" relative="1" as="geometry">
            <mxPoint as="offset" />
          </mxGeometry>
        </mxCell>
        <mxCell id="cRAT8RDkjrram8gvv_J--1" value="templates" style="rounded=0;whiteSpace=wrap;html=1;" vertex="1" parent="1">
          <mxGeometry x="240" y="200" width="120" height="60" as="geometry" />
        </mxCell>
        <mxCell id="cRAT8RDkjrram8gvv_J--4" value="app/templates/application.hbs&lt;br&gt;main template, from this the ui is built" style="rounded=0;whiteSpace=wrap;html=1;" vertex="1" parent="1">
          <mxGeometry y="400" width="190" height="60" as="geometry" />
        </mxCell>
        <mxCell id="cRAT8RDkjrram8gvv_J--5" style="rounded=0;orthogonalLoop=1;jettySize=auto;html=1;" edge="1" parent="1" source="cRAT8RDkjrram8gvv_J--1" target="cRAT8RDkjrram8gvv_J--4">
          <mxGeometry relative="1" as="geometry">
            <mxPoint x="130" y="310" as="targetPoint" />
            <mxPoint x="190" y="230" as="sourcePoint" />
          </mxGeometry>
        </mxCell>
        <mxCell id="cRAT8RDkjrram8gvv_J--7" value="app/styles/app.css&lt;br&gt;main css file" style="rounded=0;whiteSpace=wrap;html=1;" vertex="1" parent="1">
          <mxGeometry x="220" y="400" width="120" height="60" as="geometry" />
        </mxCell>
        <mxCell id="cRAT8RDkjrram8gvv_J--28" style="edgeStyle=none;rounded=0;orthogonalLoop=1;jettySize=auto;html=1;" edge="1" parent="1" source="cRAT8RDkjrram8gvv_J--9" target="cRAT8RDkjrram8gvv_J--29">
          <mxGeometry relative="1" as="geometry">
            <mxPoint x="640" y="340" as="targetPoint" />
          </mxGeometry>
        </mxCell>
        <mxCell id="cRAT8RDkjrram8gvv_J--30" style="edgeStyle=none;rounded=0;orthogonalLoop=1;jettySize=auto;html=1;entryX=-0.033;entryY=0.4;entryDx=0;entryDy=0;entryPerimeter=0;" edge="1" parent="1" source="cRAT8RDkjrram8gvv_J--9" target="cRAT8RDkjrram8gvv_J--31">
          <mxGeometry relative="1" as="geometry">
            <mxPoint x="610" y="430" as="targetPoint" />
          </mxGeometry>
        </mxCell>
        <mxCell id="cRAT8RDkjrram8gvv_J--32" style="edgeStyle=none;rounded=0;orthogonalLoop=1;jettySize=auto;html=1;" edge="1" parent="1" source="cRAT8RDkjrram8gvv_J--9" target="cRAT8RDkjrram8gvv_J--33">
          <mxGeometry relative="1" as="geometry">
            <mxPoint x="610" y="340" as="targetPoint" />
          </mxGeometry>
        </mxCell>
        <mxCell id="cRAT8RDkjrram8gvv_J--45" style="edgeStyle=none;rounded=0;orthogonalLoop=1;jettySize=auto;html=1;" edge="1" parent="1" source="cRAT8RDkjrram8gvv_J--9" target="cRAT8RDkjrram8gvv_J--46">
          <mxGeometry relative="1" as="geometry">
            <mxPoint x="620" y="760" as="targetPoint" />
          </mxGeometry>
        </mxCell>
        <mxCell id="cRAT8RDkjrram8gvv_J--9" value="handle bars file that have the ui definition" style="rounded=0;whiteSpace=wrap;html=1;" vertex="1" parent="1">
          <mxGeometry x="400" y="310" width="120" height="60" as="geometry" />
        </mxCell>
        <mxCell id="cRAT8RDkjrram8gvv_J--13" value="web components, svg, html comments, white space, special html elements like table and select" style="rounded=0;whiteSpace=wrap;html=1;" vertex="1" parent="1">
          <mxGeometry x="440" y="40" width="180" height="80" as="geometry" />
        </mxCell>
        <mxCell id="cRAT8RDkjrram8gvv_J--16" value="invalid html elements, script tags" style="rounded=0;whiteSpace=wrap;html=1;" vertex="1" parent="1">
          <mxGeometry x="140" y="80" width="120" height="60" as="geometry" />
        </mxCell>
        <mxCell id="cRAT8RDkjrram8gvv_J--21" style="edgeStyle=none;rounded=0;orthogonalLoop=1;jettySize=auto;html=1;" edge="1" parent="1" source="cRAT8RDkjrram8gvv_J--20" target="cRAT8RDkjrram8gvv_J--22">
          <mxGeometry relative="1" as="geometry">
            <mxPoint x="940" y="170" as="targetPoint" />
          </mxGeometry>
        </mxCell>
        <mxCell id="cRAT8RDkjrram8gvv_J--23" value="what is?" style="edgeLabel;html=1;align=center;verticalAlign=middle;resizable=0;points=[];" vertex="1" connectable="0" parent="cRAT8RDkjrram8gvv_J--21">
          <mxGeometry x="-0.4286" y="-1" relative="1" as="geometry">
            <mxPoint as="offset" />
          </mxGeometry>
        </mxCell>
        <mxCell id="cRAT8RDkjrram8gvv_J--26" style="edgeStyle=none;rounded=0;orthogonalLoop=1;jettySize=auto;html=1;entryX=0.5;entryY=0;entryDx=0;entryDy=0;" edge="1" parent="1" source="cRAT8RDkjrram8gvv_J--20" target="cRAT8RDkjrram8gvv_J--77">
          <mxGeometry relative="1" as="geometry">
            <mxPoint x="560" y="220" as="targetPoint" />
          </mxGeometry>
        </mxCell>
        <mxCell id="cRAT8RDkjrram8gvv_J--27" value="composed by" style="edgeLabel;html=1;align=center;verticalAlign=middle;resizable=0;points=[];" vertex="1" connectable="0" parent="cRAT8RDkjrram8gvv_J--26">
          <mxGeometry x="-0.3789" y="-1" relative="1" as="geometry">
            <mxPoint x="1" as="offset" />
          </mxGeometry>
        </mxCell>
        <mxCell id="cRAT8RDkjrram8gvv_J--20" value="components&lt;br&gt;app/components" style="rounded=0;whiteSpace=wrap;html=1;" vertex="1" parent="1">
          <mxGeometry x="680" y="70" width="120" height="60" as="geometry" />
        </mxCell>
        <mxCell id="cRAT8RDkjrram8gvv_J--22" value="reusable piece of code represented by some ui element" style="rounded=0;whiteSpace=wrap;html=1;" vertex="1" parent="1">
          <mxGeometry x="870" y="70" width="120" height="60" as="geometry" />
        </mxCell>
        <mxCell id="cRAT8RDkjrram8gvv_J--40" style="edgeStyle=none;rounded=0;orthogonalLoop=1;jettySize=auto;html=1;" edge="1" parent="1" source="cRAT8RDkjrram8gvv_J--29" target="cRAT8RDkjrram8gvv_J--41">
          <mxGeometry relative="1" as="geometry">
            <mxPoint x="810" y="410" as="targetPoint" />
          </mxGeometry>
        </mxCell>
        <mxCell id="cRAT8RDkjrram8gvv_J--42" style="edgeStyle=none;rounded=0;orthogonalLoop=1;jettySize=auto;html=1;" edge="1" parent="1" source="cRAT8RDkjrram8gvv_J--43">
          <mxGeometry relative="1" as="geometry">
            <mxPoint x="840" y="440" as="targetPoint" />
          </mxGeometry>
        </mxCell>
        <mxCell id="cRAT8RDkjrram8gvv_J--29" value="parametrization" style="rounded=0;whiteSpace=wrap;html=1;" vertex="1" parent="1">
          <mxGeometry x="610" y="400" width="120" height="60" as="geometry" />
        </mxCell>
        <mxCell id="cRAT8RDkjrram8gvv_J--34" style="edgeStyle=none;rounded=0;orthogonalLoop=1;jettySize=auto;html=1;" edge="1" parent="1" source="cRAT8RDkjrram8gvv_J--31" target="cRAT8RDkjrram8gvv_J--36">
          <mxGeometry relative="1" as="geometry">
            <mxPoint x="840" y="510" as="targetPoint" />
          </mxGeometry>
        </mxCell>
        <mxCell id="cRAT8RDkjrram8gvv_J--35" value="as" style="edgeLabel;html=1;align=center;verticalAlign=middle;resizable=0;points=[];" vertex="1" connectable="0" parent="cRAT8RDkjrram8gvv_J--34">
          <mxGeometry x="-0.2545" y="-2" relative="1" as="geometry">
            <mxPoint as="offset" />
          </mxGeometry>
        </mxCell>
        <mxCell id="cRAT8RDkjrram8gvv_J--37" style="edgeStyle=none;rounded=0;orthogonalLoop=1;jettySize=auto;html=1;" edge="1" parent="1" source="cRAT8RDkjrram8gvv_J--31" target="cRAT8RDkjrram8gvv_J--38">
          <mxGeometry relative="1" as="geometry">
            <mxPoint x="840" y="600" as="targetPoint" />
          </mxGeometry>
        </mxCell>
        <mxCell id="cRAT8RDkjrram8gvv_J--39" value="as" style="edgeLabel;html=1;align=center;verticalAlign=middle;resizable=0;points=[];" vertex="1" connectable="0" parent="cRAT8RDkjrram8gvv_J--37">
          <mxGeometry x="-0.3391" y="-3" relative="1" as="geometry">
            <mxPoint as="offset" />
          </mxGeometry>
        </mxCell>
        <mxCell id="cRAT8RDkjrram8gvv_J--31" value="conditional content" style="rounded=0;whiteSpace=wrap;html=1;" vertex="1" parent="1">
          <mxGeometry x="610" y="480" width="120" height="60" as="geometry" />
        </mxCell>
        <mxCell id="cRAT8RDkjrram8gvv_J--33" value="regular element attributes specification" style="rounded=0;whiteSpace=wrap;html=1;" vertex="1" parent="1">
          <mxGeometry x="610" y="310" width="120" height="60" as="geometry" />
        </mxCell>
        <mxCell id="cRAT8RDkjrram8gvv_J--36" value="conditional block" style="rounded=0;whiteSpace=wrap;html=1;" vertex="1" parent="1">
          <mxGeometry x="840" y="480" width="120" height="60" as="geometry" />
        </mxCell>
        <mxCell id="cRAT8RDkjrram8gvv_J--38" value="conditional attribute" style="rounded=0;whiteSpace=wrap;html=1;" vertex="1" parent="1">
          <mxGeometry x="840" y="580" width="120" height="60" as="geometry" />
        </mxCell>
        <mxCell id="cRAT8RDkjrram8gvv_J--41" value="attribute" style="rounded=0;whiteSpace=wrap;html=1;" vertex="1" parent="1">
          <mxGeometry x="840" y="340" width="120" height="60" as="geometry" />
        </mxCell>
        <mxCell id="cRAT8RDkjrram8gvv_J--43" value="content&lt;br&gt;{{@yield}}" style="rounded=0;whiteSpace=wrap;html=1;" vertex="1" parent="1">
          <mxGeometry x="840" y="410" width="120" height="60" as="geometry" />
        </mxCell>
        <mxCell id="cRAT8RDkjrram8gvv_J--44" style="edgeStyle=none;rounded=0;orthogonalLoop=1;jettySize=auto;html=1;" edge="1" parent="1" source="cRAT8RDkjrram8gvv_J--29" target="cRAT8RDkjrram8gvv_J--43">
          <mxGeometry relative="1" as="geometry">
            <mxPoint x="840" y="440" as="targetPoint" />
            <mxPoint x="730" y="433.52941176470586" as="sourcePoint" />
          </mxGeometry>
        </mxCell>
        <mxCell id="cRAT8RDkjrram8gvv_J--47" style="edgeStyle=none;rounded=0;orthogonalLoop=1;jettySize=auto;html=1;" edge="1" parent="1" source="cRAT8RDkjrram8gvv_J--46" target="cRAT8RDkjrram8gvv_J--48">
          <mxGeometry relative="1" as="geometry">
            <mxPoint x="840" y="750" as="targetPoint" />
          </mxGeometry>
        </mxCell>
        <mxCell id="cRAT8RDkjrram8gvv_J--49" value="what?" style="edgeLabel;html=1;align=center;verticalAlign=middle;resizable=0;points=[];" vertex="1" connectable="0" parent="cRAT8RDkjrram8gvv_J--47">
          <mxGeometry x="-0.1818" y="3" relative="1" as="geometry">
            <mxPoint as="offset" />
          </mxGeometry>
        </mxCell>
        <mxCell id="cRAT8RDkjrram8gvv_J--46" value="helper" style="rounded=0;whiteSpace=wrap;html=1;" vertex="1" parent="1">
          <mxGeometry x="610" y="720" width="120" height="60" as="geometry" />
        </mxCell>
        <mxCell id="cRAT8RDkjrram8gvv_J--51" style="edgeStyle=none;rounded=0;orthogonalLoop=1;jettySize=auto;html=1;entryX=0;entryY=0.5;entryDx=0;entryDy=0;endArrow=none;endFill=0;" edge="1" parent="1" source="cRAT8RDkjrram8gvv_J--48" target="cRAT8RDkjrram8gvv_J--54">
          <mxGeometry relative="1" as="geometry">
            <mxPoint x="1140" y="750" as="targetPoint" />
          </mxGeometry>
        </mxCell>
        <mxCell id="cRAT8RDkjrram8gvv_J--52" value="what kind of construct?" style="edgeLabel;html=1;align=center;verticalAlign=middle;resizable=0;points=[];" vertex="1" connectable="0" parent="cRAT8RDkjrram8gvv_J--51">
          <mxGeometry x="-0.2833" relative="1" as="geometry">
            <mxPoint x="16" as="offset" />
          </mxGeometry>
        </mxCell>
        <mxCell id="cRAT8RDkjrram8gvv_J--48" value="javascript code that compute some value that could be used in a part of the template" style="rounded=0;whiteSpace=wrap;html=1;" vertex="1" parent="1">
          <mxGeometry x="840" y="720" width="120" height="60" as="geometry" />
        </mxCell>
        <mxCell id="cRAT8RDkjrram8gvv_J--53" value="function" style="rounded=0;whiteSpace=wrap;html=1;" vertex="1" parent="1">
          <mxGeometry x="1210" y="720" width="120" height="60" as="geometry" />
        </mxCell>
        <mxCell id="cRAT8RDkjrram8gvv_J--55" style="edgeStyle=none;rounded=0;orthogonalLoop=1;jettySize=auto;html=1;exitX=1;exitY=0.5;exitDx=0;exitDy=0;entryX=0;entryY=0.5;entryDx=0;entryDy=0;" edge="1" parent="1" source="cRAT8RDkjrram8gvv_J--54" target="cRAT8RDkjrram8gvv_J--53">
          <mxGeometry relative="1" as="geometry" />
        </mxCell>
        <mxCell id="cRAT8RDkjrram8gvv_J--54" value="" style="rhombus;whiteSpace=wrap;html=1;" vertex="1" parent="1">
          <mxGeometry x="1160" y="740" width="20" height="20" as="geometry" />
        </mxCell>
        <mxCell id="cRAT8RDkjrram8gvv_J--58" value="class" style="rounded=0;whiteSpace=wrap;html=1;" vertex="1" parent="1">
          <mxGeometry x="1210" y="800" width="120" height="60" as="geometry" />
        </mxCell>
        <mxCell id="cRAT8RDkjrram8gvv_J--59" style="edgeStyle=none;rounded=0;orthogonalLoop=1;jettySize=auto;html=1;entryX=0;entryY=0.5;entryDx=0;entryDy=0;" edge="1" parent="1" source="cRAT8RDkjrram8gvv_J--54" target="cRAT8RDkjrram8gvv_J--58">
          <mxGeometry relative="1" as="geometry">
            <mxPoint x="1210" y="830" as="targetPoint" />
            <mxPoint x="1173.3333333333335" y="756.6666666666667" as="sourcePoint" />
          </mxGeometry>
        </mxCell>
        <mxCell id="cRAT8RDkjrram8gvv_J--64" style="edgeStyle=none;rounded=0;orthogonalLoop=1;jettySize=auto;html=1;exitX=1;exitY=0.5;exitDx=0;exitDy=0;endArrow=classic;endFill=1;" edge="1" parent="1" source="cRAT8RDkjrram8gvv_J--61" target="cRAT8RDkjrram8gvv_J--66">
          <mxGeometry relative="1" as="geometry">
            <mxPoint x="860" y="810" as="targetPoint" />
          </mxGeometry>
        </mxCell>
        <mxCell id="cRAT8RDkjrram8gvv_J--69" style="edgeStyle=none;rounded=0;orthogonalLoop=1;jettySize=auto;html=1;entryX=0;entryY=0.5;entryDx=0;entryDy=0;endArrow=classic;endFill=1;" edge="1" parent="1" source="cRAT8RDkjrram8gvv_J--61" target="cRAT8RDkjrram8gvv_J--68">
          <mxGeometry relative="1" as="geometry" />
        </mxCell>
        <mxCell id="cRAT8RDkjrram8gvv_J--70" style="edgeStyle=none;rounded=0;orthogonalLoop=1;jettySize=auto;html=1;entryX=0;entryY=0.5;entryDx=0;entryDy=0;endArrow=classic;endFill=1;" edge="1" parent="1" source="cRAT8RDkjrram8gvv_J--61" target="cRAT8RDkjrram8gvv_J--67">
          <mxGeometry relative="1" as="geometry" />
        </mxCell>
        <mxCell id="cRAT8RDkjrram8gvv_J--73" style="edgeStyle=none;rounded=0;orthogonalLoop=1;jettySize=auto;html=1;entryX=0;entryY=0.5;entryDx=0;entryDy=0;endArrow=classic;endFill=1;" edge="1" parent="1" source="cRAT8RDkjrram8gvv_J--61" target="cRAT8RDkjrram8gvv_J--71">
          <mxGeometry relative="1" as="geometry" />
        </mxCell>
        <mxCell id="cRAT8RDkjrram8gvv_J--76" style="edgeStyle=none;rounded=0;orthogonalLoop=1;jettySize=auto;html=1;entryX=-0.082;entryY=0.493;entryDx=0;entryDy=0;entryPerimeter=0;endArrow=classic;endFill=1;" edge="1" parent="1" source="cRAT8RDkjrram8gvv_J--61" target="cRAT8RDkjrram8gvv_J--74">
          <mxGeometry relative="1" as="geometry" />
        </mxCell>
        <mxCell id="cRAT8RDkjrram8gvv_J--61" value="" style="rhombus;whiteSpace=wrap;html=1;" vertex="1" parent="1">
          <mxGeometry x="810" y="810" width="20" height="20" as="geometry" />
        </mxCell>
        <mxCell id="cRAT8RDkjrram8gvv_J--62" style="edgeStyle=none;rounded=0;orthogonalLoop=1;jettySize=auto;html=1;endArrow=none;endFill=0;entryX=0;entryY=0.5;entryDx=0;entryDy=0;" edge="1" parent="1" source="cRAT8RDkjrram8gvv_J--46" target="cRAT8RDkjrram8gvv_J--61">
          <mxGeometry relative="1" as="geometry">
            <mxPoint x="840" y="850" as="targetPoint" />
            <mxPoint x="720.9999999999998" y="780" as="sourcePoint" />
          </mxGeometry>
        </mxCell>
        <mxCell id="cRAT8RDkjrram8gvv_J--63" value="builtin" style="edgeLabel;html=1;align=center;verticalAlign=middle;resizable=0;points=[];" vertex="1" connectable="0" parent="cRAT8RDkjrram8gvv_J--62">
          <mxGeometry x="-0.3209" y="-1" relative="1" as="geometry">
            <mxPoint as="offset" />
          </mxGeometry>
        </mxCell>
        <mxCell id="cRAT8RDkjrram8gvv_J--66" value="get" style="rounded=0;whiteSpace=wrap;html=1;" vertex="1" parent="1">
          <mxGeometry x="880" y="790" width="40" height="20" as="geometry" />
        </mxCell>
        <mxCell id="cRAT8RDkjrram8gvv_J--67" value="let" style="rounded=0;whiteSpace=wrap;html=1;" vertex="1" parent="1">
          <mxGeometry x="880" y="850" width="40" height="20" as="geometry" />
        </mxCell>
        <mxCell id="cRAT8RDkjrram8gvv_J--68" value="concat" style="rounded=0;whiteSpace=wrap;html=1;" vertex="1" parent="1">
          <mxGeometry x="880" y="820" width="40" height="20" as="geometry" />
        </mxCell>
        <mxCell id="cRAT8RDkjrram8gvv_J--71" value="array" style="rounded=0;whiteSpace=wrap;html=1;" vertex="1" parent="1">
          <mxGeometry x="880" y="880" width="40" height="20" as="geometry" />
        </mxCell>
        <mxCell id="cRAT8RDkjrram8gvv_J--74" value="hash" style="rounded=0;whiteSpace=wrap;html=1;" vertex="1" parent="1">
          <mxGeometry x="880" y="910" width="40" height="20" as="geometry" />
        </mxCell>
        <mxCell id="cRAT8RDkjrram8gvv_J--78" style="edgeStyle=none;rounded=0;orthogonalLoop=1;jettySize=auto;html=1;entryX=1;entryY=0.5;entryDx=0;entryDy=0;endArrow=classic;endFill=1;" edge="1" parent="1" source="cRAT8RDkjrram8gvv_J--77" target="cRAT8RDkjrram8gvv_J--1">
          <mxGeometry relative="1" as="geometry" />
        </mxCell>
        <mxCell id="cRAT8RDkjrram8gvv_J--79" style="edgeStyle=none;rounded=0;orthogonalLoop=1;jettySize=auto;html=1;endArrow=classic;endFill=1;" edge="1" parent="1" source="cRAT8RDkjrram8gvv_J--77" target="cRAT8RDkjrram8gvv_J--80">
          <mxGeometry relative="1" as="geometry">
            <mxPoint x="1080" y="230" as="targetPoint" />
          </mxGeometry>
        </mxCell>
        <mxCell id="cRAT8RDkjrram8gvv_J--77" value="" style="rhombus;whiteSpace=wrap;html=1;" vertex="1" parent="1">
          <mxGeometry x="720" y="210" width="20" height="20" as="geometry" />
        </mxCell>
        <mxCell id="cRAT8RDkjrram8gvv_J--81" style="edgeStyle=none;rounded=0;orthogonalLoop=1;jettySize=auto;html=1;endArrow=classic;endFill=1;" edge="1" parent="1" source="cRAT8RDkjrram8gvv_J--80" target="cRAT8RDkjrram8gvv_J--82">
          <mxGeometry relative="1" as="geometry">
            <mxPoint x="1310" y="230" as="targetPoint" />
          </mxGeometry>
        </mxCell>
        <mxCell id="cRAT8RDkjrram8gvv_J--80" value="actionable code" style="rounded=0;whiteSpace=wrap;html=1;" vertex="1" parent="1">
          <mxGeometry x="1020" y="200" width="120" height="60" as="geometry" />
        </mxCell>
        <mxCell id="cRAT8RDkjrram8gvv_J--82" value="a javascript class that derives from Component" style="rounded=0;whiteSpace=wrap;html=1;" vertex="1" parent="1">
          <mxGeometry x="1300" y="200" width="120" height="60" as="geometry" />
        </mxCell>
      </root>
    </mxGraphModel>
  </diagram>
</mxfile>
